<svg xmlns="http://www.w3.org/2000/svg" xmlns:xlink="http://www.w3.org/1999/xlink" xmlns:lucid="lucid" width="1820" height="1280"><g transform="translate(0 20)" lucid:page-tab-id="0_0"><path d="M280 106a6 6 0 0 1 6-6h1308a6 6 0 0 1 6 6v1128a6 6 0 0 1-6 6H286a6 6 0 0 1-6-6z" stroke="#5e5e5e" stroke-width="3" fill-opacity="0"/><use xlink:href="#a" transform="matrix(1,0,0,1,288,108) translate(600.2098765432098 17.77777777777778)"/><path d="M640 6a6 6 0 0 1 6-6h548a6 6 0 0 1 6 6v83.33a6 6 0 0 1-6 6H646a6 6 0 0 1-6-6z" stroke="#000" stroke-opacity="0" stroke-width="3" fill="#fff" fill-opacity="0"/><use xlink:href="#b" transform="matrix(1,0,0,1,645,5) translate(18.216049382716164 49.944444444444436)"/><use xlink:href="#c" transform="matrix(1,0,0,1,645,5) translate(221.47530864197535 49.944444444444436)"/><use xlink:href="#d" transform="matrix(1,0,0,1,645,5) translate(272.7345679012346 49.944444444444436)"/><path d="M40 506a6 6 0 0 1 6-6h228a6 6 0 0 1 6 6v48a6 6 0 0 1-6 6H46a6 6 0 0 1-6-6z" stroke="#000" stroke-opacity="0" stroke-width="3" fill="#fff" fill-opacity="0"/><use xlink:href="#e" transform="matrix(1,0,0,1,45,505) translate(83.58024691358025 30.27777777777778)"/><path d="M159.75 779.75c0 10.9-8.84 19.75-19.75 19.75-10.9 0-19.75-8.84-19.75-19.75 0-10.9 8.84-19.75 19.75-19.75 10.9 0 19.75 8.84 19.75 19.75z" stroke="#5e5e5e" stroke-width="3" fill="#fff"/><path d="M140 799.5v49.3a20.7 20.7 0 0 0 3.2 11.07L180 918m-40-63.2L100 918m0-98.75h80" stroke="#5e5e5e" stroke-width="3" fill="none"/><path d="M100 766a6 6 0 0 1 6-6h68a6 6 0 0 1 6 6v168a6 6 0 0 1-6 6h-68a6 6 0 0 1-6-6z" fill="none"/><use xlink:href="#f" transform="matrix(1,0,0,1,20,918) translate(87.9320987654321 17.77777777777778)"/><path d="M1600 706a6 6 0 0 1 6-6h188a6 6 0 0 1 6 6v48a6 6 0 0 1-6 6h-188a6 6 0 0 1-6-6z" stroke="#000" stroke-opacity="0" stroke-width="3" fill="#fff" fill-opacity="0"/><use xlink:href="#g" transform="matrix(1,0,0,1,1605,705) translate(60.46296296296296 30.27777777777778)"/><path d="M1719.75 519.75c0 10.9-8.84 19.75-19.75 19.75-10.9 0-19.75-8.84-19.75-19.75 0-10.9 8.84-19.75 19.75-19.75 10.9 0 19.75 8.84 19.75 19.75z" stroke="#5e5e5e" stroke-width="3" fill="#fff"/><path d="M1700 539.5v49.3a20.7 20.7 0 0 0 3.2 11.07L1740 658m-40-63.2l-40 63.2m0-98.75h80" stroke="#5e5e5e" stroke-width="3" fill="none"/><path d="M1660 506a6 6 0 0 1 6-6h68a6 6 0 0 1 6 6v168a6 6 0 0 1-6 6h-68a6 6 0 0 1-6-6z" fill="none"/><use xlink:href="#f" transform="matrix(1,0,0,1,1580,658) translate(87.9320987654321 17.77777777777778)"/><path d="M20 966a6 6 0 0 1 6-6h228a6 6 0 0 1 6 6v48a6 6 0 0 1-6 6H26a6 6 0 0 1-6-6z" stroke="#000" stroke-opacity="0" stroke-width="3" fill="#fff" fill-opacity="0"/><use xlink:href="#h" transform="matrix(1,0,0,1,25,965) translate(73.08641975308642 30.27777777777778)"/><path d="M159.5 378.8h1M159.53 378.8h-1.03M160.47 378.8h1.03" stroke="#5e5e5e" stroke-width="2" fill="none"/><path d="M179.75 319.75c0 10.9-8.84 19.75-19.75 19.75-10.9 0-19.75-8.84-19.75-19.75 0-10.9 8.84-19.75 19.75-19.75 10.9 0 19.75 8.84 19.75 19.75z" stroke="#5e5e5e" stroke-width="3" fill="#fff"/><path d="M160 339.5v49.3a20.7 20.7 0 0 0 3.2 11.07L200 458m-40-63.2L120 458m0-98.75h80" stroke="#5e5e5e" stroke-width="3" fill="none"/><path d="M120 306a6 6 0 0 1 6-6h68a6 6 0 0 1 6 6v168a6 6 0 0 1-6 6h-68a6 6 0 0 1-6-6z" fill="none"/><use xlink:href="#f" transform="matrix(1,0,0,1,40,458) translate(87.9320987654321 17.77777777777778)"/><path d="M680 399.33c0 38.66-44.77 70-100 70s-100-31.34-100-70 44.77-70 100-70 100 31.34 100 70z" stroke="#5e5e5e" stroke-width="3" fill="#fff"/><use xlink:href="#i" transform="matrix(1,0,0,1,480,329.32836820697656) translate(26.630000000000003 75.65)"/><use xlink:href="#j" transform="matrix(1,0,0,1,480,329.32836820697656) translate(77.53 75.65)"/><use xlink:href="#k" transform="matrix(1,0,0,1,480,329.32836820697656) translate(105.48 75.65)"/><path d="M1073.05 910c0 38.66-44.77 70-100 70s-100-31.34-100-70 44.77-70 100-70 100 31.34 100 70z" stroke="#5e5e5e" stroke-width="3" fill="#fff"/><use xlink:href="#l" transform="matrix(1,0,0,1,873.0475189917383,840) translate(52.029999999999994 62.525)"/><use xlink:href="#m" transform="matrix(1,0,0,1,873.0475189917383,840) translate(127.98 62.525)"/><use xlink:href="#n" transform="matrix(1,0,0,1,873.0475189917383,840) translate(50.55499999999999 84.125)"/><path d="M1060 650c0 38.66-44.77 70-100 70s-100-31.34-100-70 44.77-70 100-70 100 31.34 100 70z" stroke="#5e5e5e" stroke-width="3" fill="#fff"/><use xlink:href="#o" transform="matrix(1,0,0,1,860,580) translate(71.105 75.65)"/><path d="M1450 770c0 38.66-49.25 70-110 70s-110-31.34-110-70 49.25-70 110-70 110 31.34 110 70z" stroke="#5e5e5e" stroke-width="3" fill="#fff"/><use xlink:href="#p" transform="matrix(1,0,0,1,1230,700) translate(61.07999999999999 62.525)"/><use xlink:href="#m" transform="matrix(1,0,0,1,1230,700) translate(138.93 62.525)"/><use xlink:href="#n" transform="matrix(1,0,0,1,1230,700) translate(60.55499999999999 84.125)"/><path d="M680 611.7c0 33.12-44.77 60-100 60s-100-26.88-100-60c0-33.15 44.77-60 100-60s100 26.85 100 60z" stroke="#5e5e5e" stroke-width="3" fill="#fff"/><use xlink:href="#i" transform="matrix(1,0,0,1,480,551.6856523643885) translate(33.605 63.15)"/><use xlink:href="#j" transform="matrix(1,0,0,1,480,551.6856523643885) translate(84.505 63.15)"/><use xlink:href="#q" transform="matrix(1,0,0,1,480,551.6856523643885) translate(112.455 63.15)"/><path d="M1040 410c0 38.66-44.77 70-100 70s-100-31.34-100-70 44.77-70 100-70 100 31.34 100 70z" stroke="#5e5e5e" stroke-width="3" fill="#fff"/><use xlink:href="#r" transform="matrix(1,0,0,1,840,340) translate(81.055 75.65)"/><path d="M159.5 378.86l318 20.4M159.52 378.86l-4-.25" stroke="#5e5e5e" stroke-width="2" fill="none"/><path d="M478.52 398.33l-.02 1v1l-1.1-.07.14-2" fill="#5e5e5e"/><path d="M477.7 611.1L159.3 379.4" stroke="#5e5e5e" stroke-width="2" fill="none"/><path d="M478.53 610.47l-.03 1.2v.82l.03.44-1.45-1.05 1.18-1.63" fill="#5e5e5e"/><path d="M159.33 379.4l-3.26-2.37M1452.3 769.4l245.4-191.18" stroke="#5e5e5e" stroke-width="2" fill="none"/><path d="M1452.92 770.16l-1.45 1.13.03-1.3-.02-1.2v-.05l.2-.17" fill="#5e5e5e"/><path d="M1697.7 578.24l3.17-2.47" stroke="#5e5e5e" stroke-width="2" fill="none"/><path d="M700 1130c0 38.66-44.77 70-100 70s-100-31.34-100-70 44.77-70 100-70 100 31.34 100 70z" stroke="#5e5e5e" stroke-width="3" fill="#fff"/><use xlink:href="#s" transform="matrix(1,0,0,1,500,1060) translate(56.57999999999999 62.525)"/><use xlink:href="#m" transform="matrix(1,0,0,1,500,1060) translate(123.43 62.525)"/><use xlink:href="#n" transform="matrix(1,0,0,1,500,1060) translate(50.55499999999999 84.125)"/><path d="M1100 1130c0 38.66-44.77 70-100 70s-100-31.34-100-70 44.77-70 100-70 100 31.34 100 70z" stroke="#5e5e5e" stroke-width="3" fill="#fff"/><use xlink:href="#t" transform="matrix(1,0,0,1,900,1060) translate(53.73 62.525)"/><use xlink:href="#m" transform="matrix(1,0,0,1,900,1060) translate(126.28 62.525)"/><use xlink:href="#n" transform="matrix(1,0,0,1,900,1060) translate(50.55499999999999 84.125)"/><path d="M139.5 838.97l832.56 142.36M139.5 838.97l-3.96-.68" stroke="#5e5e5e" stroke-width="2" fill="none"/><path d="M975.84 983l-3.97-.7.14-.83 1.04.03 3.06-.03" fill="#5e5e5e"/><path d="M139.43 839.16l758.14 290.48M139.46 839.16l-3.76-1.44" stroke="#5e5e5e" stroke-width="2" fill="none"/><path d="M898.53 1128.94l-.03 1.05v1.08l-1.32-.5.72-1.88" fill="#5e5e5e"/><path d="M139.27 839.44l359.4 299.67M139.3 839.45l-3.1-2.57" stroke="#5e5e5e" stroke-width="2" fill="none"/><path d="M499.25 1138.73l.5 2.55v.03l-1.73-1.44 1.18-1.42" fill="#5e5e5e"/><path d="M700 810c0 38.66-44.77 70-100 70s-100-31.34-100-70 44.77-70 100-70 100 31.34 100 70z" stroke="#5e5e5e" stroke-width="3" fill="#fff"/><use xlink:href="#u" transform="matrix(1,0,0,1,500,740) translate(38.055 75.65)"/><use xlink:href="#v" transform="matrix(1,0,0,1,500,740) translate(109.00500000000001 75.65)"/><use xlink:href="#w" transform="matrix(1,0,0,1,500,740) translate(134.005 75.65)"/><path d="M497.5 810.08l-358 28.64" stroke="#5e5e5e" stroke-width="2" fill="none"/><path d="M498.5 810v1l-.94.08-.16-2 1.12-.1" fill="#5e5e5e"/><path d="M139.52 838.72l-4 .32" stroke="#5e5e5e" stroke-width="2" fill="none"/><path d="M685.62 712.5a6 6 0 0 1-3.52-7.73L762 491.23a6 6 0 0 1 7.72-3.52l44.96 16.83a6 6 0 0 1 3.52 7.73L738.3 725.8a6 6 0 0 1-7.72 3.5z" stroke="#000" stroke-opacity="0" stroke-width="3" fill="#fff" fill-opacity="0"/><use xlink:href="#x" transform="matrix(0.35043206498560286,-0.9365881527277218,0.9365881527277218,0.35043206498560286,686.4351010885666,707.4606184967988) translate(53.95061728395061 30.27777777777778)"/><path d="M1050.54 614.86a6 6 0 0 1 .68-8.46l138.07-117.66a6 6 0 0 1 8.44.67l11.72 13.76a6 6 0 0 1-.68 8.45L1070.7 629.28a6 6 0 0 1-8.44-.67z" stroke="#000" stroke-opacity="0" stroke-width="3" fill="#fff" fill-opacity="0"/><use xlink:href="#x" transform="matrix(0.7611113453731412,-0.6486212453691962,0.6486212453691962,0.7611113453731412,1053.7001345839244,610.8510955476977) translate(11.450617283950614 17.77777777777778)"/><path d="M1420 510c0 38.66-44.77 70-100 70s-100-31.34-100-70 44.77-70 100-70 100 31.34 100 70z" stroke="#5e5e5e" stroke-width="3" fill="#fff"/><use xlink:href="#u" transform="matrix(1,0,0,1,1220,440) translate(38.055 75.65)"/><use xlink:href="#v" transform="matrix(1,0,0,1,1220,440) translate(109.00500000000001 75.65)"/><use xlink:href="#w" transform="matrix(1,0,0,1,1220,440) translate(134.005 75.65)"/><path d="M1422.47 510.24l275.06 67.13" stroke="#5e5e5e" stroke-width="2" fill="none"/><path d="M1422.73 509.27l-.47 1.94-.8-.18.04-1v-1.05" fill="#5e5e5e"/><path d="M1697.5 577.37l1 .24" stroke="#5e5e5e" stroke-width="2" fill="none"/><path d="M680 190c0 38.66-44.77 70-100 70s-100-31.34-100-70 44.77-70 100-70 100 31.34 100 70z" stroke="#5e5e5e" stroke-width="3" fill="#fff"/><use xlink:href="#u" transform="matrix(1,0,0,1,480,120) translate(38.055 75.65)"/><use xlink:href="#v" transform="matrix(1,0,0,1,480,120) translate(109.00500000000001 75.65)"/><use xlink:href="#w" transform="matrix(1,0,0,1,480,120) translate(134.005 75.65)"/><path d="M159.37 378.3L478.3 198.64M159.4 378.3l-3.5 1.97" stroke="#5e5e5e" stroke-width="2" fill="none"/><path d="M479.25 198.73l.1.46-.6.3-.97-1.73 1.22-.7" fill="#5e5e5e"/><path d="M682.08 190.8l1.75 2.46m2.33 3.27l3.5 4.9m2.33 3.26l3.48 4.9m2.33 3.26l3.5 4.9m2.34 3.26l3.5 4.9m2.33 3.27l3.5 4.9m2.32 3.25l3.5 4.9m2.32 3.27l3.5 4.9m2.33 3.26l3.5 4.9m2.32 3.27l3.5 4.9m2.33 3.26l3.5 4.9m2.33 3.28l3.5 4.9m2.33 3.26l3.5 4.9m2.32 3.27l3.5 4.9m2.33 3.27l3.5 4.9m2.34 3.27l3.5 4.9m2.32 3.26l3.5 4.9m2.33 3.27l3.5 4.9m2.32 3.27l3.5 4.9m2.32 3.26l3.5 4.9m2.33 3.27l3.5 4.9m2.33 3.26l3.5 4.9m2.32 3.27l3.5 4.9m2.33 3.26l3.5 4.9m2.33 3.27l3.5 4.9m2.32 3.26l1.75 2.44" stroke="#5e5e5e" stroke-width="2" fill="none"/><path d="M682.9 190.25l-1.43 1.03.03-1.27v-1.08l-.04-.7" fill="#5e5e5e"/><path d="M836.62 407.37l-12.06-8.92 7.55-5.4z" stroke="#5e5e5e" stroke-width="2" fill="#5e5e5e"/><g><path d="M746.6 183.03a6 6 0 0 1 8.2 2.15l115.22 196.75a6 6 0 0 1-2.15 8.2l-41.42 24.26a6 6 0 0 1-8.2-2.15L703.02 215.5a6 6 0 0 1 2.15-8.2z" stroke="#000" stroke-opacity="0" stroke-width="3" fill="#fff" fill-opacity="0"/></g><g><use xlink:href="#x" transform="matrix(0.5052946022969717,0.8629469073410863,-0.8629469073410863,0.5052946022969717,749.9885529152446,186.84120754819014) translate(53.95061728395061 30.27777777777778)"/></g><g><path d="M1049.46 345.03a6 6 0 0 1 8.3-1.76l191.08 124.4a6 6 0 0 1 1.75 8.3l-26.2 40.23a6 6 0 0 1-8.3 1.75l-191.07-124.4a6 6 0 0 1-1.76-8.3z" stroke="#000" stroke-opacity="0" stroke-width="3" fill="#fff" fill-opacity="0"/></g><g><use xlink:href="#y" transform="matrix(0.8380485974337134,0.5455955904691548,-0.5455955904691548,0.8380485974337134,1054.1980004629722,346.9182209395143) translate(55.74074074074074 30.27777777777778)"/></g><path d="M701.84 809.06l1-2.85m1.37-3.8l2.05-5.7m1.35-3.8l2.04-5.7m1.36-3.8l2.03-5.68m1.36-3.8l2.02-5.7m1.36-3.8l2.04-5.7m1.35-3.8l2.04-5.7m1.36-3.8l2.04-5.7m1.36-3.8l2.03-5.7m1.35-3.8l2.03-5.7m1.36-3.8l2.04-5.7m1.35-3.8l2.04-5.68m1.36-3.8l2.03-5.7m1.36-3.8l2.03-5.7m1.36-3.8l2.05-5.7m1.35-3.8l2.04-5.7m1.35-3.8l2.03-5.7m1.36-3.8l2.02-5.7m1.36-3.8l2.03-5.7m1.37-3.8l2.04-5.68m1.36-3.8l2.04-5.7m1.36-3.8l2.03-5.7m1.35-3.8l2.03-5.7m1.36-3.8l2.04-5.7m1.35-3.8l2.04-5.7m1.35-3.8l2.04-5.7m1.36-3.8l2.03-5.7m1.36-3.8l2.04-5.68m1.36-3.8l2.04-5.7m1.35-3.8l2.03-5.7m1.36-3.8l2.02-5.7m1.36-3.8l2.03-5.7m1.37-3.8l2.04-5.7m1.36-3.8l2.04-5.7m1.35-3.8l2.04-5.7m1.35-3.8l2.03-5.7m1.36-3.78l2.03-5.7m1.36-3.8l2.04-5.7m1.35-3.8l2.04-5.7m1.36-3.8l2.03-5.7m1.36-3.8l2.04-5.7m1.36-3.8l1.02-2.84" stroke="#5e5e5e" stroke-width="2" fill="none"/><path d="M702.8 809.37l-1.37 3.8-.04-.02.04-.58.06-2.56v-1.08" fill="#5e5e5e"/><path d="M846.05 405.28l-.43 15-8.73-3.12z" stroke="#5e5e5e" stroke-width="2" fill="#5e5e5e"/><path d="M1217.75 510.67l-2.25 2m-3 2.68l-4.5 4m-3 2.68l-4.5 4m-3 2.7l-4.5 4m-3 2.67l-4.48 4m-3 2.7l-4.5 4m-3 2.67l-4.5 4m-3 2.7l-4.5 4m-3 2.67l-4.5 4m-3 2.7l-4.5 4m-3 2.67l-4.5 4.02m-3 2.68l-4.48 4m-3 2.68l-4.5 4m-3 2.7l-4.5 4m-3 2.67l-4.5 4.02m-3 2.67l-4.5 4m-3 2.68l-4.5 4.02m-3 2.67l-4.5 4.02m-2.98 2.68l-4.5 4m-3 2.68l-2.25 2" stroke="#5e5e5e" stroke-width="2" fill="none"/><path d="M1218.5 510v1.08l.02.24-.12.1-1.33-1.48 1.46-1.3" fill="#5e5e5e"/><path d="M1063.92 647.85l7.56-12.96 6.17 6.9z" stroke="#5e5e5e" stroke-width="2" fill="#5e5e5e"/><path d="M1042.37 410.5l2.67 1.5m3.55 2l5.33 3.02m3.55 2l5.34 3.02m3.55 2l5.34 3.03m3.56 2l5.34 3.02m3.55 2l5.34 3m3.54 2.02l5.34 3m3.55 2.02l5.34 3.02m3.55 2l5.34 3.02m3.55 2l5.35 3.02m3.55 2l5.34 3.02m3.55 2l5.33 3.03m3.55 2l5.34 3.02m3.55 2l5.34 3.02m3.56 2l5.34 3.02m3.55 2l5.34 3.02m3.54 2l5.34 3.02m3.55 2l5.34 3.02m3.55 2l2.67 1.52" stroke="#5e5e5e" stroke-width="2" fill="none"/><path d="M1042.88 409.63l-.98 1.75-.43-.25.03-1.12V408.85" fill="#5e5e5e"/><path d="M1215.68 508.4l-14.7-2.97 4.56-8.07z" stroke="#5e5e5e" stroke-width="2" fill="#5e5e5e"/><defs><path fill="#333" d="M212-179c-10-28-35-45-73-45-59 0-87 40-87 99 0 60 29 101 89 101 43 0 62-24 78-52l27 14C228-24 195 4 139 4 59 4 22-46 18-125c-6-104 99-153 187-111 19 9 31 26 39 46" id="z"/><path fill="#333" d="M100-194c62-1 85 37 85 99 1 63-27 99-86 99S16-35 15-95c0-66 28-99 85-99zM99-20c44 1 53-31 53-75 0-43-8-75-51-75s-53 32-53 75 10 74 51 75" id="A"/><path fill="#333" d="M117-194c89-4 53 116 60 194h-32v-121c0-31-8-49-39-48C34-167 62-67 57 0H25l-1-190h30c1 10-1 24 2 32 11-22 29-35 61-36" id="B"/><path fill="#333" d="M59-47c-2 24 18 29 38 22v24C64 9 27 4 27-40v-127H5v-23h24l9-43h21v43h35v23H59v120" id="C"/><path fill="#333" d="M100-194c63 0 86 42 84 106H49c0 40 14 67 53 68 26 1 43-12 49-29l28 8c-11 28-37 45-77 45C44 4 14-33 15-96c1-61 26-98 85-98zm52 81c6-60-76-77-97-28-3 7-6 17-6 28h103" id="D"/><path fill="#333" d="M84 4C-5 8 30-112 23-190h32v120c0 31 7 50 39 49 72-2 45-101 50-169h31l1 190h-30c-1-10 1-25-2-33-11 22-28 36-60 37" id="E"/><path fill="#333" d="M114-163C36-179 61-72 57 0H25l-1-190h30c1 12-1 29 2 39 6-27 23-49 58-41v29" id="F"/><g id="a"><use transform="matrix(0.06172839506172839,0,0,0.06172839506172839,0,0)" xlink:href="#z"/><use transform="matrix(0.06172839506172839,0,0,0.06172839506172839,15.987654320987653,0)" xlink:href="#A"/><use transform="matrix(0.06172839506172839,0,0,0.06172839506172839,28.333333333333332,0)" xlink:href="#B"/><use transform="matrix(0.06172839506172839,0,0,0.06172839506172839,40.67901234567901,0)" xlink:href="#C"/><use transform="matrix(0.06172839506172839,0,0,0.06172839506172839,46.851851851851855,0)" xlink:href="#D"/><use transform="matrix(0.06172839506172839,0,0,0.06172839506172839,59.19753086419753,0)" xlink:href="#B"/><use transform="matrix(0.06172839506172839,0,0,0.06172839506172839,71.54320987654322,0)" xlink:href="#D"/><use transform="matrix(0.06172839506172839,0,0,0.06172839506172839,83.8888888888889,0)" xlink:href="#E"/><use transform="matrix(0.06172839506172839,0,0,0.06172839506172839,96.23456790123458,0)" xlink:href="#F"/></g><path fill="#333" d="M24-248c120-7 223 5 221 122C244-46 201 0 124 0H24v-248zM76-40c74 7 117-18 117-86 0-67-45-88-117-82v168" id="G"/><path fill="#333" d="M25-224v-37h50v37H25zM25 0v-190h50V0H25" id="H"/><path fill="#333" d="M133-34C117-15 103 5 69 4 32 3 11-16 11-54c-1-60 55-63 116-61 1-26-3-47-28-47-18 1-26 9-28 27l-52-2c7-38 36-58 82-57s74 22 75 68l1 82c-1 14 12 18 25 15v27c-30 8-71 5-69-32zm-48 3c29 0 43-24 42-57-32 0-66-3-65 30 0 17 8 27 23 27" id="I"/><path fill="#333" d="M195-6C206 82 75 100 31 46c-4-6-6-13-8-21l49-6c3 16 16 24 34 25 40 0 42-37 40-79-11 22-30 35-61 35-53 0-70-43-70-97 0-56 18-96 73-97 30 0 46 14 59 34l2-30h47zm-90-29c32 0 41-27 41-63 0-35-9-62-40-62-32 0-39 29-40 63 0 36 9 62 39 62" id="J"/><path fill="#333" d="M135-150c-39-12-60 13-60 57V0H25l-1-190h47c2 13-1 29 3 40 6-28 27-53 61-41v41" id="K"/><path fill="#333" d="M220-157c-53 9-28 100-34 157h-49v-107c1-27-5-49-29-50C55-147 81-57 75 0H25l-1-190h47c2 12-1 28 3 38 10-53 101-56 108 0 13-22 24-43 59-42 82 1 51 116 57 194h-49v-107c-1-25-5-48-29-50" id="L"/><path fill="#333" d="M185-48c-13 30-37 53-82 52C43 2 14-33 14-96s30-98 90-98c62 0 83 45 84 108H66c0 31 8 55 39 56 18 0 30-7 34-22zm-45-69c5-46-57-63-70-21-2 6-4 13-4 21h74" id="M"/><g id="b"><use transform="matrix(0.0987654320987654,0,0,0.0987654320987654,0,0)" xlink:href="#G"/><use transform="matrix(0.0987654320987654,0,0,0.0987654320987654,25.58024691358024,0)" xlink:href="#H"/><use transform="matrix(0.0987654320987654,0,0,0.0987654320987654,35.45679012345678,0)" xlink:href="#I"/><use transform="matrix(0.0987654320987654,0,0,0.0987654320987654,55.20987654320986,0)" xlink:href="#J"/><use transform="matrix(0.0987654320987654,0,0,0.0987654320987654,76.83950617283948,0)" xlink:href="#K"/><use transform="matrix(0.0987654320987654,0,0,0.0987654320987654,90.66666666666663,0)" xlink:href="#I"/><use transform="matrix(0.0987654320987654,0,0,0.0987654320987654,110.41975308641969,0)" xlink:href="#L"/><use transform="matrix(0.0987654320987654,0,0,0.0987654320987654,142.02469135802463,0)" xlink:href="#L"/><use transform="matrix(0.0987654320987654,0,0,0.0987654320987654,173.62962962962956,0)" xlink:href="#M"/></g><path fill="#333" d="M88-194c31-1 46 15 58 34l-1-101h50l1 261h-48c-2-10 0-23-3-31C134-8 116 4 84 4 32 4 16-41 15-95c0-56 19-97 73-99zm17 164c33 0 40-30 41-66 1-37-9-64-41-64s-38 30-39 65c0 43 13 65 39 65" id="N"/><g id="c"><use transform="matrix(0.0987654320987654,0,0,0.0987654320987654,0,0)" xlink:href="#N"/><use transform="matrix(0.0987654320987654,0,0,0.0987654320987654,21.629629629629623,0)" xlink:href="#M"/></g><path fill="#333" d="M190-63c-7 42-38 67-86 67-59 0-84-38-90-98-12-110 154-137 174-36l-49 2c-2-19-15-32-35-32-30 0-35 28-38 64-6 74 65 87 74 30" id="O"/><path fill="#333" d="M137-138c1-29-70-34-71-4 15 46 118 7 119 86 1 83-164 76-172 9l43-7c4 19 20 25 44 25 33 8 57-30 24-41C81-84 22-81 20-136c-2-80 154-74 161-7" id="P"/><path fill="#333" d="M14-72v-43h91v43H14" id="Q"/><path fill="#333" d="M85 4C-2 5 27-109 22-190h50c7 57-23 150 33 157 60-5 35-97 40-157h50l1 190h-47c-2-12 1-28-3-38-12 25-28 42-61 42" id="R"/><path fill="#333" d="M115-3C79 11 28 4 28-45v-112H4v-33h27l15-45h31v45h36v33H77v99c-1 23 16 31 38 25v30" id="S"/><path fill="#333" d="M25 0v-261h50V0H25" id="T"/><path fill="#333" d="M110-194c64 0 96 36 96 99 0 64-35 99-97 99-61 0-95-36-95-99 0-62 34-99 96-99zm-1 164c35 0 45-28 45-65 0-40-10-65-43-65-34 0-45 26-45 65 0 36 10 65 43 65" id="U"/><path fill="#333" d="M135-194c87-1 58 113 63 194h-50c-7-57 23-157-34-157-59 0-34 97-39 157H25l-1-190h47c2 12-1 28 3 38 12-26 28-41 61-42" id="V"/><g id="d"><use transform="matrix(0.0987654320987654,0,0,0.0987654320987654,0,0)" xlink:href="#O"/><use transform="matrix(0.0987654320987654,0,0,0.0987654320987654,19.753086419753078,0)" xlink:href="#I"/><use transform="matrix(0.0987654320987654,0,0,0.0987654320987654,39.506172839506156,0)" xlink:href="#P"/><use transform="matrix(0.0987654320987654,0,0,0.0987654320987654,59.25925925925924,0)" xlink:href="#Q"/><use transform="matrix(0.0987654320987654,0,0,0.0987654320987654,71.01234567901233,0)" xlink:href="#N"/><use transform="matrix(0.0987654320987654,0,0,0.0987654320987654,92.64197530864195,0)" xlink:href="#R"/><use transform="matrix(0.0987654320987654,0,0,0.0987654320987654,114.27160493827157,0)" xlink:href="#S"/><use transform="matrix(0.0987654320987654,0,0,0.0987654320987654,126.02469135802465,0)" xlink:href="#H"/><use transform="matrix(0.0987654320987654,0,0,0.0987654320987654,135.90123456790118,0)" xlink:href="#T"/><use transform="matrix(0.0987654320987654,0,0,0.0987654320987654,145.77777777777771,0)" xlink:href="#H"/><use transform="matrix(0.0987654320987654,0,0,0.0987654320987654,155.65432098765424,0)" xlink:href="#P"/><use transform="matrix(0.0987654320987654,0,0,0.0987654320987654,175.40740740740733,0)" xlink:href="#I"/><use transform="matrix(0.0987654320987654,0,0,0.0987654320987654,195.16049382716042,0)" xlink:href="#S"/><use transform="matrix(0.0987654320987654,0,0,0.0987654320987654,206.9135802469135,0)" xlink:href="#H"/><use transform="matrix(0.0987654320987654,0,0,0.0987654320987654,216.79012345679004,0)" xlink:href="#U"/><use transform="matrix(0.0987654320987654,0,0,0.0987654320987654,238.41975308641966,0)" xlink:href="#V"/></g><path fill="#333" d="M205 0l-28-72H64L36 0H1l101-248h38L239 0h-34zm-38-99l-47-123c-12 45-31 82-46 123h93" id="W"/><path fill="#333" d="M85-194c31 0 48 13 60 33l-1-100h32l1 261h-30c-2-10 0-23-3-31C134-8 116 4 85 4 32 4 16-35 15-94c0-66 23-100 70-100zm9 24c-40 0-46 34-46 75 0 40 6 74 45 74 42 0 51-32 51-76 0-42-9-74-50-73" id="X"/><path fill="#333" d="M210-169c-67 3-38 105-44 169h-31v-121c0-29-5-50-35-48C34-165 62-65 56 0H25l-1-190h30c1 10-1 24 2 32 10-44 99-50 107 0 11-21 27-35 58-36 85-2 47 119 55 194h-31v-121c0-29-5-49-35-48" id="Y"/><path fill="#333" d="M24-231v-30h32v30H24zM24 0v-190h32V0H24" id="Z"/><g id="e"><use transform="matrix(0.06172839506172839,0,0,0.06172839506172839,0,0)" xlink:href="#W"/><use transform="matrix(0.06172839506172839,0,0,0.06172839506172839,14.814814814814813,0)" xlink:href="#X"/><use transform="matrix(0.06172839506172839,0,0,0.06172839506172839,27.160493827160494,0)" xlink:href="#Y"/><use transform="matrix(0.06172839506172839,0,0,0.06172839506172839,45.61728395061728,0)" xlink:href="#Z"/><use transform="matrix(0.06172839506172839,0,0,0.06172839506172839,50.49382716049382,0)" xlink:href="#B"/></g><path fill="#333" d="M96-169c-40 0-48 33-48 73s9 75 48 75c24 0 41-14 43-38l32 2c-6 37-31 61-74 61-59 0-76-41-82-99-10-93 101-131 147-64 4 7 5 14 7 22l-32 3c-4-21-16-35-41-35" id="aa"/><g id="f"><use transform="matrix(0.06172839506172839,0,0,0.06172839506172839,0,0)" xlink:href="#W"/><use transform="matrix(0.06172839506172839,0,0,0.06172839506172839,14.814814814814813,0)" xlink:href="#aa"/><use transform="matrix(0.06172839506172839,0,0,0.06172839506172839,25.925925925925924,0)" xlink:href="#C"/><use transform="matrix(0.06172839506172839,0,0,0.06172839506172839,32.098765432098766,0)" xlink:href="#D"/><use transform="matrix(0.06172839506172839,0,0,0.06172839506172839,44.44444444444444,0)" xlink:href="#E"/><use transform="matrix(0.06172839506172839,0,0,0.06172839506172839,56.79012345679012,0)" xlink:href="#F"/></g><path fill="#333" d="M30-248c87 1 191-15 191 75 0 78-77 80-158 76V0H30v-248zm33 125c57 0 124 11 124-50 0-59-68-47-124-48v98" id="ab"/><path fill="#333" d="M141-36C126-15 110 5 73 4 37 3 15-17 15-53c-1-64 63-63 125-63 3-35-9-54-41-54-24 1-41 7-42 31l-33-3c5-37 33-52 76-52 45 0 72 20 72 64v82c-1 20 7 32 28 27v20c-31 9-61-2-59-35zM48-53c0 20 12 33 32 33 41-3 63-29 60-74-43 2-92-5-92 41" id="ac"/><g id="g"><use transform="matrix(0.06172839506172839,0,0,0.06172839506172839,0,0)" xlink:href="#ab"/><use transform="matrix(0.06172839506172839,0,0,0.06172839506172839,14.814814814814813,0)" xlink:href="#ac"/><use transform="matrix(0.06172839506172839,0,0,0.06172839506172839,27.160493827160494,0)" xlink:href="#C"/><use transform="matrix(0.06172839506172839,0,0,0.06172839506172839,33.333333333333336,0)" xlink:href="#Z"/><use transform="matrix(0.06172839506172839,0,0,0.06172839506172839,38.20987654320988,0)" xlink:href="#D"/><use transform="matrix(0.06172839506172839,0,0,0.06172839506172839,50.55555555555556,0)" xlink:href="#B"/><use transform="matrix(0.06172839506172839,0,0,0.06172839506172839,62.901234567901234,0)" xlink:href="#C"/></g><path fill="#333" d="M240 0l2-218c-23 76-54 145-80 218h-23L58-218 59 0H30v-248h44l77 211c21-75 51-140 76-211h43V0h-30" id="ad"/><path fill="#333" d="M100-194c63 0 86 42 84 106H49c0 40 14 67 53 68 26 1 43-12 49-29l28 8c-11 28-37 45-77 45C44 4 14-33 15-96c1-61 26-98 85-98zm52 81c6-60-76-77-97-28-3 7-6 17-6 28h103zm-74-98c8-23 27-35 38-54h36v5l-58 49H78" id="ae"/><g id="h"><use transform="matrix(0.06172839506172839,0,0,0.06172839506172839,0,0)" xlink:href="#ad"/><use transform="matrix(0.06172839506172839,0,0,0.06172839506172839,18.456790123456788,0)" xlink:href="#ae"/><use transform="matrix(0.06172839506172839,0,0,0.06172839506172839,30.80246913580247,0)" xlink:href="#X"/><use transform="matrix(0.06172839506172839,0,0,0.06172839506172839,43.148148148148145,0)" xlink:href="#D"/><use transform="matrix(0.06172839506172839,0,0,0.06172839506172839,55.49382716049382,0)" xlink:href="#aa"/><use transform="matrix(0.06172839506172839,0,0,0.06172839506172839,66.60493827160494,0)" xlink:href="#Z"/><use transform="matrix(0.06172839506172839,0,0,0.06172839506172839,71.48148148148148,0)" xlink:href="#B"/></g><path d="M143 4C61 4 22-44 18-125c-5-107 100-154 193-111 17 8 29 25 37 43l-32 9c-13-25-37-40-76-40-61 0-88 39-88 99 0 61 29 100 91 101 35 0 62-11 79-27v-45h-74v-28h105v86C228-13 192 4 143 4" id="af"/><path d="M100-194c63 0 86 42 84 106H49c0 40 14 67 53 68 26 1 43-12 49-29l28 8c-11 28-37 45-77 45C44 4 14-33 15-96c1-61 26-98 85-98zm52 81c6-60-76-77-97-28-3 7-6 17-6 28h103zm-74-98c8-23 27-35 38-54h36v5l-58 49H78" id="ag"/><path d="M114-163C36-179 61-72 57 0H25l-1-190h30c1 12-1 29 2 39 6-27 23-49 58-41v29" id="ah"/><path d="M100-194c63 0 86 42 84 106H49c0 40 14 67 53 68 26 1 43-12 49-29l28 8c-11 28-37 45-77 45C44 4 14-33 15-96c1-61 26-98 85-98zm52 81c6-60-76-77-97-28-3 7-6 17-6 28h103" id="ai"/><g id="i"><use transform="matrix(0.05,0,0,0.05,0,0)" xlink:href="#af"/><use transform="matrix(0.05,0,0,0.05,14,0)" xlink:href="#ag"/><use transform="matrix(0.05,0,0,0.05,24,0)" xlink:href="#ah"/><use transform="matrix(0.05,0,0,0.05,29.950000000000003,0)" xlink:href="#ai"/><use transform="matrix(0.05,0,0,0.05,39.95,0)" xlink:href="#ah"/></g><path d="M24 0v-261h32V0H24" id="aj"/><path d="M135-143c-3-34-86-38-87 0 15 53 115 12 119 90S17 21 10-45l28-5c4 36 97 45 98 0-10-56-113-15-118-90-4-57 82-63 122-42 12 7 21 19 24 35" id="ak"/><g id="j"><use transform="matrix(0.05,0,0,0.05,0,0)" xlink:href="#aj"/><use transform="matrix(0.05,0,0,0.05,3.95,0)" xlink:href="#ai"/><use transform="matrix(0.05,0,0,0.05,13.949999999999998,0)" xlink:href="#ak"/></g><path d="M210-169c-67 3-38 105-44 169h-31v-121c0-29-5-50-35-48C34-165 62-65 56 0H25l-1-190h30c1 10-1 24 2 32 10-44 99-50 107 0 11-21 27-35 58-36 85-2 47 119 55 194h-31v-121c0-29-5-49-35-48" id="al"/><path d="M85-194c31 0 48 13 60 33l-1-100h32l1 261h-30c-2-10 0-23-3-31C134-8 116 4 85 4 32 4 16-35 15-94c0-66 23-100 70-100zm9 24c-40 0-46 34-46 75 0 40 6 74 45 74 42 0 51-32 51-76 0-42-9-74-50-73" id="am"/><path d="M96-169c-40 0-48 33-48 73s9 75 48 75c24 0 41-14 43-38l32 2c-6 37-31 61-74 61-59 0-76-41-82-99-10-93 101-131 147-64 4 7 5 14 7 22l-32 3c-4-21-16-35-41-35" id="an"/><path d="M24-231v-30h32v30H24zM24 0v-190h32V0H24" id="ao"/><path d="M117-194c89-4 53 116 60 194h-32v-121c0-31-8-49-39-48C34-167 62-67 57 0H25l-1-190h30c1 10-1 24 2 32 11-22 29-35 61-36" id="ap"/><g id="k"><use transform="matrix(0.05,0,0,0.05,0,0)" xlink:href="#al"/><use transform="matrix(0.05,0,0,0.05,14.950000000000001,0)" xlink:href="#ag"/><use transform="matrix(0.05,0,0,0.05,24.950000000000003,0)" xlink:href="#am"/><use transform="matrix(0.05,0,0,0.05,34.95,0)" xlink:href="#ai"/><use transform="matrix(0.05,0,0,0.05,44.95,0)" xlink:href="#an"/><use transform="matrix(0.05,0,0,0.05,53.95,0)" xlink:href="#ao"/><use transform="matrix(0.05,0,0,0.05,57.900000000000006,0)" xlink:href="#ap"/></g><path d="M205 0l-28-72H64L36 0H1l101-248h38L239 0h-34zm-38-99l-47-123c-12 45-31 82-46 123h93" id="aq"/><path d="M115-194c55 1 70 41 70 98S169 2 115 4C84 4 66-9 55-30l1 105H24l-1-265h31l2 30c10-21 28-34 59-34zm-8 174c40 0 45-34 45-75s-6-73-45-74c-42 0-51 32-51 76 0 43 10 73 51 73" id="ar"/><path d="M59-47c-2 24 18 29 38 22v24C64 9 27 4 27-40v-127H5v-23h24l9-43h21v43h35v23H59v120" id="as"/><g id="l"><use transform="matrix(0.05,0,0,0.05,0,0)" xlink:href="#aq"/><use transform="matrix(0.05,0,0,0.05,12,0)" xlink:href="#an"/><use transform="matrix(0.05,0,0,0.05,21,0)" xlink:href="#an"/><use transform="matrix(0.05,0,0,0.05,30,0)" xlink:href="#ai"/><use transform="matrix(0.05,0,0,0.05,40,0)" xlink:href="#ar"/><use transform="matrix(0.05,0,0,0.05,50,0)" xlink:href="#as"/><use transform="matrix(0.05,0,0,0.05,55,0)" xlink:href="#ai"/><use transform="matrix(0.05,0,0,0.05,65,0)" xlink:href="#ah"/></g><path d="M84 4C-5 8 30-112 23-190h32v120c0 31 7 50 39 49 72-2 45-101 50-169h31l1 190h-30c-1-10 1-25-2-33-11 22-28 36-60 37" id="at"/><g id="m"><use transform="matrix(0.05,0,0,0.05,0,0)" xlink:href="#at"/><use transform="matrix(0.05,0,0,0.05,10,0)" xlink:href="#ap"/></g><path d="M9 0v-24l116-142H16v-24h144v24L44-24h123V0H9" id="au"/><path d="M16-82v-28h88v28H16" id="av"/><path d="M108 0H70L1-190h34L89-25l56-165h34" id="aw"/><path d="M100-194c62-1 85 37 85 99 1 63-27 99-86 99S16-35 15-95c0-66 28-99 85-99zM99-20c44 1 53-31 53-75 0-43-8-75-51-75s-53 32-53 75 10 74 51 75" id="ax"/><g id="n"><use transform="matrix(0.05,0,0,0.05,0,0)" xlink:href="#ah"/><use transform="matrix(0.05,0,0,0.05,5.95,0)" xlink:href="#ai"/><use transform="matrix(0.05,0,0,0.05,15.949999999999998,0)" xlink:href="#ap"/><use transform="matrix(0.05,0,0,0.05,25.950000000000003,0)" xlink:href="#am"/><use transform="matrix(0.05,0,0,0.05,35.95,0)" xlink:href="#ai"/><use transform="matrix(0.05,0,0,0.05,45.95,0)" xlink:href="#au"/><use transform="matrix(0.05,0,0,0.05,54.95,0)" xlink:href="#av"/><use transform="matrix(0.05,0,0,0.05,60.900000000000006,0)" xlink:href="#aw"/><use transform="matrix(0.05,0,0,0.05,69.9,0)" xlink:href="#ax"/><use transform="matrix(0.05,0,0,0.05,79.9,0)" xlink:href="#at"/><use transform="matrix(0.05,0,0,0.05,89.9,0)" xlink:href="#ak"/></g><g id="o"><use transform="matrix(0.05,0,0,0.05,0,0)" xlink:href="#ao"/><use transform="matrix(0.05,0,0,0.05,3.95,0)" xlink:href="#ap"/><use transform="matrix(0.05,0,0,0.05,13.949999999999998,0)" xlink:href="#ak"/><use transform="matrix(0.05,0,0,0.05,22.95,0)" xlink:href="#an"/><use transform="matrix(0.05,0,0,0.05,31.950000000000003,0)" xlink:href="#ah"/><use transform="matrix(0.05,0,0,0.05,37.9,0)" xlink:href="#ao"/><use transform="matrix(0.05,0,0,0.05,41.85,0)" xlink:href="#ah"/><use transform="matrix(0.05,0,0,0.05,47.800000000000004,0)" xlink:href="#ai"/></g><path d="M233-177c-1 41-23 64-60 70L243 0h-38l-65-103H63V0H30v-248c88 3 205-21 203 71zM63-129c60-2 137 13 137-47 0-61-80-42-137-45v92" id="ay"/><g id="p"><use transform="matrix(0.05,0,0,0.05,0,0)" xlink:href="#ay"/><use transform="matrix(0.05,0,0,0.05,12.950000000000001,0)" xlink:href="#ag"/><use transform="matrix(0.05,0,0,0.05,22.950000000000003,0)" xlink:href="#ak"/><use transform="matrix(0.05,0,0,0.05,31.950000000000003,0)" xlink:href="#ai"/><use transform="matrix(0.05,0,0,0.05,41.95,0)" xlink:href="#ah"/><use transform="matrix(0.05,0,0,0.05,47.900000000000006,0)" xlink:href="#aw"/><use transform="matrix(0.05,0,0,0.05,56.900000000000006,0)" xlink:href="#ai"/><use transform="matrix(0.05,0,0,0.05,66.9,0)" xlink:href="#ah"/></g><path d="M141-36C126-15 110 5 73 4 37 3 15-17 15-53c-1-64 63-63 125-63 3-35-9-54-41-54-24 1-41 7-42 31l-33-3c5-37 33-52 76-52 45 0 72 20 72 64v82c-1 20 7 32 28 27v20c-31 9-61-2-59-35zM48-53c0 20 12 33 32 33 41-3 63-29 60-74-43 2-92-5-92 41" id="az"/><g id="q"><use transform="matrix(0.05,0,0,0.05,0,0)" xlink:href="#ar"/><use transform="matrix(0.05,0,0,0.05,10,0)" xlink:href="#az"/><use transform="matrix(0.05,0,0,0.05,20,0)" xlink:href="#as"/><use transform="matrix(0.05,0,0,0.05,25,0)" xlink:href="#ao"/><use transform="matrix(0.05,0,0,0.05,28.950000000000003,0)" xlink:href="#ai"/><use transform="matrix(0.05,0,0,0.05,38.95,0)" xlink:href="#ap"/><use transform="matrix(0.05,0,0,0.05,48.95,0)" xlink:href="#as"/></g><path d="M177-190C167-65 218 103 67 71c-23-6-38-20-44-43l32-5c15 47 100 32 89-28v-30C133-14 115 1 83 1 29 1 15-40 15-95c0-56 16-97 71-98 29-1 48 16 59 35 1-10 0-23 2-32h30zM94-22c36 0 50-32 50-73 0-42-14-75-50-75-39 0-46 34-46 75s6 73 46 73" id="aA"/><g id="r"><use transform="matrix(0.05,0,0,0.05,0,0)" xlink:href="#aj"/><use transform="matrix(0.05,0,0,0.05,3.95,0)" xlink:href="#ax"/><use transform="matrix(0.05,0,0,0.05,13.949999999999998,0)" xlink:href="#aA"/><use transform="matrix(0.05,0,0,0.05,23.95,0)" xlink:href="#ao"/><use transform="matrix(0.05,0,0,0.05,27.899999999999995,0)" xlink:href="#ap"/></g><path d="M30-248c118-7 216 8 213 122C240-48 200 0 122 0H30v-248zM63-27c89 8 146-16 146-99s-60-101-146-95v194" id="aB"/><g id="s"><use transform="matrix(0.05,0,0,0.05,0,0)" xlink:href="#aB"/><use transform="matrix(0.05,0,0,0.05,12.950000000000001,0)" xlink:href="#ai"/><use transform="matrix(0.05,0,0,0.05,22.950000000000003,0)" xlink:href="#an"/><use transform="matrix(0.05,0,0,0.05,31.950000000000003,0)" xlink:href="#az"/><use transform="matrix(0.05,0,0,0.05,41.95,0)" xlink:href="#aj"/><use transform="matrix(0.05,0,0,0.05,45.900000000000006,0)" xlink:href="#ai"/><use transform="matrix(0.05,0,0,0.05,55.900000000000006,0)" xlink:href="#ah"/></g><path d="M101-234c-31-9-42 10-38 44h38v23H63V0H32v-167H5v-23h27c-7-52 17-82 69-68v24" id="aC"/><g id="t"><use transform="matrix(0.05,0,0,0.05,0,0)" xlink:href="#ay"/><use transform="matrix(0.05,0,0,0.05,12.950000000000001,0)" xlink:href="#ai"/><use transform="matrix(0.05,0,0,0.05,22.950000000000003,0)" xlink:href="#aC"/><use transform="matrix(0.05,0,0,0.05,27.6,0)" xlink:href="#aC"/><use transform="matrix(0.05,0,0,0.05,32.6,0)" xlink:href="#at"/><use transform="matrix(0.05,0,0,0.05,42.6,0)" xlink:href="#ak"/><use transform="matrix(0.05,0,0,0.05,51.6,0)" xlink:href="#ai"/><use transform="matrix(0.05,0,0,0.05,61.6,0)" xlink:href="#ah"/></g><g id="u"><use transform="matrix(0.05,0,0,0.05,0,0)" xlink:href="#aq"/><use transform="matrix(0.05,0,0,0.05,12,0)" xlink:href="#an"/><use transform="matrix(0.05,0,0,0.05,21,0)" xlink:href="#an"/><use transform="matrix(0.05,0,0,0.05,30,0)" xlink:href="#ag"/><use transform="matrix(0.05,0,0,0.05,40,0)" xlink:href="#am"/><use transform="matrix(0.05,0,0,0.05,50,0)" xlink:href="#ai"/><use transform="matrix(0.05,0,0,0.05,60,0)" xlink:href="#ah"/></g><g id="v"><use transform="matrix(0.05,0,0,0.05,0,0)" xlink:href="#az"/><use transform="matrix(0.05,0,0,0.05,10,0)" xlink:href="#at"/></g><g id="w"><use transform="matrix(0.05,0,0,0.05,0,0)" xlink:href="#ak"/><use transform="matrix(0.05,0,0,0.05,9,0)" xlink:href="#ao"/><use transform="matrix(0.05,0,0,0.05,12.949999999999998,0)" xlink:href="#as"/><use transform="matrix(0.05,0,0,0.05,17.95,0)" xlink:href="#ai"/></g><path fill="#333" d="M18-100v-36l175-74v27L42-118l151 64v27" id="aD"/><path fill="#333" d="M24 0v-261h32V0H24" id="aE"/><path fill="#333" d="M18-27v-27l151-64-151-65v-27l175 74v36" id="aF"/><g id="x"><use transform="matrix(0.06172839506172839,0,0,0.06172839506172839,0,0)" xlink:href="#aD"/><use transform="matrix(0.06172839506172839,0,0,0.06172839506172839,12.962962962962962,0)" xlink:href="#aD"/><use transform="matrix(0.06172839506172839,0,0,0.06172839506172839,25.925925925925924,0)" xlink:href="#Z"/><use transform="matrix(0.06172839506172839,0,0,0.06172839506172839,30.80246913580247,0)" xlink:href="#B"/><use transform="matrix(0.06172839506172839,0,0,0.06172839506172839,43.148148148148145,0)" xlink:href="#aa"/><use transform="matrix(0.06172839506172839,0,0,0.06172839506172839,54.25925925925925,0)" xlink:href="#aE"/><use transform="matrix(0.06172839506172839,0,0,0.06172839506172839,59.1358024691358,0)" xlink:href="#E"/><use transform="matrix(0.06172839506172839,0,0,0.06172839506172839,71.48148148148148,0)" xlink:href="#X"/><use transform="matrix(0.06172839506172839,0,0,0.06172839506172839,83.82716049382717,0)" xlink:href="#D"/><use transform="matrix(0.06172839506172839,0,0,0.06172839506172839,96.17283950617285,0)" xlink:href="#aF"/><use transform="matrix(0.06172839506172839,0,0,0.06172839506172839,109.13580246913581,0)" xlink:href="#aF"/></g><path fill="#333" d="M141 0L90-78 38 0H4l68-98-65-92h35l48 74 47-74h35l-64 92 68 98h-35" id="aG"/><g id="y"><use transform="matrix(0.06172839506172839,0,0,0.06172839506172839,0,0)" xlink:href="#aD"/><use transform="matrix(0.06172839506172839,0,0,0.06172839506172839,12.962962962962962,0)" xlink:href="#aD"/><use transform="matrix(0.06172839506172839,0,0,0.06172839506172839,25.925925925925924,0)" xlink:href="#D"/><use transform="matrix(0.06172839506172839,0,0,0.06172839506172839,38.2716049382716,0)" xlink:href="#aG"/><use transform="matrix(0.06172839506172839,0,0,0.06172839506172839,49.38271604938271,0)" xlink:href="#C"/><use transform="matrix(0.06172839506172839,0,0,0.06172839506172839,55.55555555555555,0)" xlink:href="#D"/><use transform="matrix(0.06172839506172839,0,0,0.06172839506172839,67.90123456790123,0)" xlink:href="#B"/><use transform="matrix(0.06172839506172839,0,0,0.06172839506172839,80.24691358024691,0)" xlink:href="#X"/><use transform="matrix(0.06172839506172839,0,0,0.06172839506172839,92.5925925925926,0)" xlink:href="#aF"/><use transform="matrix(0.06172839506172839,0,0,0.06172839506172839,105.55555555555556,0)" xlink:href="#aF"/></g></defs></g></svg>